<?xml version="1.0" encoding="UTF-8" standalone="no"?>
<svg
   xmlns:dc="http://purl.org/dc/elements/1.1/"
   xmlns:cc="http://creativecommons.org/ns#"
   xmlns:rdf="http://www.w3.org/1999/02/22-rdf-syntax-ns#"
   xmlns:svg="http://www.w3.org/2000/svg"
   xmlns="http://www.w3.org/2000/svg"
   version="1.1"
   id="svg16075"
   viewBox="0 0 744.09448819 1052.3622047"
   height="297mm"
   width="210mm">
  <defs
     id="defs16077" />
  <metadata
     id="metadata16080">
    <rdf:RDF>
      <cc:Work
         rdf:about="">
        <dc:format>image/svg+xml</dc:format>
        <dc:type
           rdf:resource="http://purl.org/dc/dcmitype/StillImage" />
        <dc:title></dc:title>
      </cc:Work>
    </rdf:RDF>
  </metadata>
  <g
     id="layer1">
    <rect
       y="302.36221"
       x="109.87372"
       height="370"
       width="396.4841"
       id="rect16625"
       style="color:#000000;clip-rule:nonzero;display:inline;overflow:visible;visibility:visible;opacity:1;isolation:auto;mix-blend-mode:normal;color-interpolation:sRGB;color-interpolation-filters:linearRGB;solid-color:#000000;solid-opacity:1;fill:none;fill-opacity:1;fill-rule:evenodd;stroke:#000000;stroke-width:1;stroke-linecap:butt;stroke-linejoin:miter;stroke-miterlimit:4;stroke-dasharray:none;stroke-dashoffset:0;stroke-opacity:1;color-rendering:auto;image-rendering:auto;shape-rendering:auto;text-rendering:auto;enable-background:accumulate" />
    <path
       id="path16639"
       d="m 166.54188,671.33948 c 2.61147,-30.50004 10.38304,-63.00606 34.46206,-87.65794 70.05326,-71.71988 158.87613,-105.54885 215.16251,-179.46413 17.81653,-23.39667 36.00716,-80.09559 35.72767,-101.44764"
       style="fill:none;fill-rule:evenodd;stroke:#000000;stroke-width:1px;stroke-linecap:butt;stroke-linejoin:miter;stroke-opacity:1" />
    <path
       id="path16641"
       d="m 214,672.3622 0,-370"
       style="color:#000000;clip-rule:nonzero;display:inline;overflow:visible;visibility:visible;opacity:1;isolation:auto;mix-blend-mode:normal;color-interpolation:sRGB;color-interpolation-filters:linearRGB;solid-color:#000000;solid-opacity:1;fill:none;fill-opacity:1;fill-rule:evenodd;stroke:#000000;stroke-width:1;stroke-linecap:butt;stroke-linejoin:miter;stroke-miterlimit:4;stroke-dasharray:6, 6;stroke-dashoffset:0;stroke-opacity:1;color-rendering:auto;image-rendering:auto;shape-rendering:auto;text-rendering:auto;enable-background:accumulate" />
    <path
       id="path16645"
       d="m 400,672.3622 0,-370"
       style="fill:none;fill-rule:evenodd;stroke:#000000;stroke-width:1;stroke-linecap:butt;stroke-linejoin:miter;stroke-opacity:1;stroke-miterlimit:4;stroke-dasharray:6,6;stroke-dashoffset:0" />
    <g
       id="g16679"
       transform="matrix(0.24824975,0,0,0.29739553,388.25108,584.29635)">
      <g
         word-spacing="normal"
         letter-spacing="normal"
         font-size-adjust="none"
         font-stretch="normal"
         font-weight="normal"
         font-variant="normal"
         font-style="normal"
         stroke-miterlimit="10.433"
         xml:space="preserve"
         transform="matrix(1.0629921,0,0,-1.0629921,-186.02362,789.27165)"
         id="content"
         style="font-style:normal;font-variant:normal;font-weight:normal;font-stretch:normal;letter-spacing:normal;word-spacing:normal;text-anchor:start;fill:none;fill-opacity:1;fill-rule:evenodd;stroke:#000000;stroke-width:3.68034363;stroke-linecap:butt;stroke-linejoin:miter;stroke-miterlimit:10.43299961;stroke-dasharray:none;stroke-dashoffset:0;stroke-opacity:1"><path
           id="path16682"
           d="m 468.38,440.23 0,0 0,0.01 0,0 0,0.01 0,0.02 0,0.01 -0.01,0.02 0,0.02 0,0.02 -0.01,0.02 0,0.02 -0.01,0.02 -0.01,0.02 0,0.03 -0.02,0.02 -0.01,0.03 -0.01,0.02 -0.02,0.03 -0.02,0.02 -0.02,0.02 -0.02,0.03 -0.01,0.01 -0.02,0.01 -0.01,0.01 -0.01,0.01 -0.02,0.01 -0.01,0.01 -0.02,0.01 -0.02,0.01 -0.02,0.01 -0.01,0.01 -0.02,0 -0.02,0.01 -0.02,0.01 -0.03,0 -0.02,0.01 -0.02,0.01 -0.02,0 -0.03,0 -0.02,0.01 -0.03,0 -0.03,0 -0.03,0.01 -0.03,0 -0.03,0 c -1.14,0 -4.78,-0.41 -6.08,-0.5 -0.39,-0.05 -0.93,-0.1 -0.93,-1.05 0,-0.55 0.48,-0.55 1.23,-0.55 2.39,0 2.45,-0.45 2.45,-0.84 l -0.15,-1 -6.28,-24.91 c -0.14,-0.54 -0.25,-0.9 -0.25,-1.7 0,-2.83 2.2,-4.58 4.53,-4.58 1.65,0 2.89,1 3.75,2.78 0.89,1.91 1.48,4.8 1.48,4.89 0,0.5 -0.43,0.5 -0.59,0.5 -0.5,0 -0.55,-0.2 -0.7,-0.9 -0.85,-3.24 -1.79,-6.17 -3.79,-6.17 -1.5,0 -1.5,1.59 -1.5,2.29 0,1.19 0.07,1.44 0.3,2.39 z"
           style="fill:#000000;stroke-width:0" /><path
           id="path16684"
           d="m 494.72,419.79 -0.01,0.48 -0.03,0.47 -0.05,0.46 -0.07,0.44 -0.09,0.44 -0.1,0.42 -0.13,0.4 -0.14,0.4 -0.15,0.38 -0.18,0.36 -0.19,0.36 -0.2,0.34 -0.22,0.32 -0.23,0.31 -0.25,0.3 -0.26,0.28 -0.28,0.26 -0.29,0.25 -0.3,0.24 -0.31,0.22 -0.32,0.2 -0.33,0.19 -0.35,0.17 -0.35,0.15 -0.37,0.13 -0.37,0.12 -0.38,0.1 -0.39,0.09 -0.4,0.06 -0.4,0.05 -0.41,0.03 -0.42,0 -0.05,-1.09 c 2.89,0 4.39,-2.39 4.39,-5.37 0,-1.96 -1,-7.18 -2.89,-10.43 -1.75,-2.89 -4.48,-4.57 -6.78,-4.57 l 0,0 c -2.14,0 -4.33,1.54 -4.33,5.43 0,2.44 1.3,7.82 2.89,10.36 2.49,3.83 5.33,4.58 6.72,4.58 l 0.05,1.09 c -6.67,0 -13.34,-7.06 -13.34,-14.14 0,-4.93 3.32,-8.42 7.97,-8.42 6.62,0 13.34,6.88 13.34,14.14 z"
           style="fill:#000000;stroke-width:0" /><path
           id="path16686"
           d="m 518.95,424.98 0,0.06 0.01,0.05 0.02,0.05 0.01,0.06 0.02,0.1 0.01,0.05 0.01,0.06 0.01,0.05 0.01,0.06 0.01,0.05 0.01,0.06 0.01,0.06 0,0.06 0,0.03 0,0.03 0.01,0.03 0,0.03 c 0,0.86 -0.6,1.36 -1.44,1.36 -0.5,0 -1.85,-0.36 -2.05,-2.16 -0.89,1.85 -2.64,3.14 -4.62,3.14 l 0.04,-1.09 c 3.28,0 3.99,-4.03 3.99,-4.28 0,-0.25 -0.1,-0.55 -0.16,-0.75 l -2.39,-9.52 c -0.3,-1.29 -1.44,-2.53 -2.53,-3.48 -1.05,-0.89 -2.59,-1.8 -4.05,-1.8 -2.48,0 -3.23,2.6 -3.23,4.58 0,2.41 1.45,8.28 2.8,10.81 1.34,2.46 3.48,4.44 5.57,4.44 l -0.04,1.09 c -5.69,0 -11.86,-6.96 -11.86,-14.14 0,-4.93 3.03,-7.87 6.62,-7.87 2.94,0 5.28,2.34 5.78,2.89 l 0.05,-0.05 c -1.05,-4.43 -1.64,-6.48 -1.64,-6.58 -0.2,-0.45 -1.89,-5.39 -7.17,-5.39 -0.96,0 -2.6,0.07 -4,0.5 1.5,0.46 2.04,1.75 2.04,2.6 0,0.79 -0.54,1.75 -1.89,1.75 -1.09,0 -2.68,-0.91 -2.68,-2.89 0,-2.05 1.84,-3.05 6.62,-3.05 6.22,0 9.81,3.89 10.56,6.88 z"
           style="fill:#000000;stroke-width:0" /><path
           id="path16688"
           d="m 543.05,440.98 -0.03,0.06 -0.03,0.06 -0.03,0.05 -0.03,0.05 -0.03,0.05 -0.02,0.05 -0.03,0.05 -0.03,0.04 -0.02,0.04 -0.03,0.04 -0.03,0.04 -0.02,0.03 -0.03,0.04 -0.03,0.03 -0.03,0.03 -0.03,0.03 -0.04,0.02 -0.03,0.03 -0.04,0.02 -0.04,0.02 -0.04,0.02 -0.04,0.01 -0.05,0.02 -0.05,0.01 -0.05,0.01 -0.06,0.01 -0.06,0.01 -0.06,0.01 -0.06,0 -0.07,0.01 -0.08,0 -0.08,0 c -0.84,0 -0.93,-0.25 -1.28,-0.89 l -0.31,-4.09 13.41,-26.91 -26.86,0 13.45,26.91 0.31,4.09 -16.84,-33.78 c -0.25,-0.45 -0.25,-0.55 -0.25,-0.59 0,-0.41 0.3,-0.41 1.09,-0.41 l 34.58,0 c 0.8,0 1.1,0 1.1,0.41 0,0.04 0,0.14 -0.25,0.59 z"
           style="fill:#000000;stroke-width:0" /><path
           id="path16690"
           d="m 587.91,426.32 0,0.02 -0.01,0.02 0,0.01 -0.01,0.02 -0.01,0.02 -0.01,0.02 -0.01,0.03 0,0.02 -0.01,0.02 -0.01,0.02 -0.02,0.03 -0.01,0.02 -0.02,0.05 -0.02,0.06 -0.02,0.05 -0.02,0.05 -0.01,0.02 -0.01,0.03 -0.01,0.02 0,0.02 -0.01,0.03 -0.01,0.02 0,0.02 -0.01,0.02 0,0.02 0,0.02 -0.01,0.01 0,0.02 c 0,0.04 0.89,0.75 1.46,1.14 l 8.72,6.73 c 4.67,3.44 6.62,3.63 8.11,3.78 0.4,0.05 0.9,0.1 0.9,1 0,0.19 -0.15,0.55 -0.55,0.55 -1.1,0 -2.34,-0.16 -3.54,-0.16 -1.8,0 -3.74,0.16 -5.53,0.16 -0.35,0 -0.94,0 -0.94,-1 0,-0.34 0.25,-0.5 0.59,-0.55 1.1,-0.09 1.55,-0.34 1.55,-1.04 0,-0.89 -1.5,-2.05 -1.8,-2.3 l -19.43,-14.94 4,15.99 c 0.43,1.79 0.54,2.29 4.17,2.29 1.25,0 1.7,0 1.7,1 0,0.44 -0.41,0.55 -0.7,0.55 -1.39,0 -4.99,-0.16 -6.38,-0.16 -1.44,0 -4.98,0.16 -6.42,0.16 -0.36,0 -1,0 -1,-0.95 0,-0.6 0.45,-0.6 1.44,-0.6 0.65,0 1.54,-0.04 2.14,-0.09 0.8,-0.11 1.11,-0.25 1.11,-0.8 0,-0.2 -0.06,-0.36 -0.21,-0.95 l -6.67,-26.75 c -0.5,-1.95 -0.61,-2.34 -4.54,-2.34 -0.85,0 -1.39,0 -1.39,-0.96 0,-0.59 0.59,-0.59 0.75,-0.59 1.39,0 4.93,0.16 6.32,0.16 1.05,0 2.14,-0.07 3.19,-0.07 1.09,0 2.19,-0.09 3.24,-0.09 0.35,0 1,0 1,1 0,0.55 -0.46,0.55 -1.4,0.55 -1.84,0 -3.23,0 -3.23,0.89 0,0.36 0.3,1.45 0.44,2.2 0.7,2.58 1.34,5.22 2,7.81 l 7.42,5.78 5.78,-13.4 c 0.59,-1.35 0.59,-1.44 0.59,-1.74 0,-1.5 -2.14,-1.54 -2.59,-1.54 -0.55,0 -1.09,0 -1.09,-1 0,-0.55 0.59,-0.55 0.7,-0.55 1.98,0 4.08,0.16 6.08,0.16 1.09,0 3.78,-0.16 4.87,-0.16 0.25,0 0.91,0 0.91,1 0,0.55 -0.56,0.55 -1,0.55 -2.05,0.04 -2.69,0.5 -3.44,2.23 z"
           style="fill:#000000;stroke-width:0" /></g>    </g>
    <g
       transform="matrix(-0.00172623,-0.31755939,0.29383912,-0.00159729,0.1779747,459.95575)"
       id="g16730">
      <g
         style="font-style:normal;font-variant:normal;font-weight:normal;font-stretch:normal;letter-spacing:normal;word-spacing:normal;text-anchor:start;fill:none;fill-opacity:1;fill-rule:evenodd;stroke:#000000;stroke-width:3.27360511;stroke-linecap:butt;stroke-linejoin:miter;stroke-miterlimit:10.43299961;stroke-dasharray:none;stroke-dashoffset:0;stroke-opacity:1"
         id="g16732"
         transform="matrix(1.0629921,0,0,-1.0629921,-186.02362,789.27165)"
         xml:space="preserve"
         stroke-miterlimit="10.433"
         font-style="normal"
         font-variant="normal"
         font-weight="normal"
         font-stretch="normal"
         font-size-adjust="none"
         letter-spacing="normal"
         word-spacing="normal"><path
           style="fill:#000000;stroke-width:0"
           d="m 481.22,440.23 0,0 0,0.01 0,0 0,0.01 0,0.02 0,0.01 0,0.02 0,0.02 -0.01,0.02 0,0.02 -0.01,0.02 0,0.02 -0.01,0.02 -0.01,0.03 -0.01,0.02 -0.01,0.03 -0.02,0.02 -0.01,0.03 -0.02,0.02 -0.02,0.02 -0.02,0.03 -0.02,0.01 -0.01,0.01 -0.01,0.01 -0.02,0.01 -0.01,0.01 -0.02,0.01 -0.01,0.01 -0.02,0.01 -0.01,0.01 -0.02,0.01 -0.02,0 -0.02,0.01 -0.02,0.01 -0.02,0 -0.02,0.01 -0.03,0.01 -0.02,0 -0.02,0 -0.03,0.01 -0.03,0 -0.02,0 -0.03,0.01 -0.03,0 -0.03,0 c -0.75,0 -5.48,-0.46 -6.33,-0.55 -0.4,-0.05 -0.7,-0.3 -0.7,-0.95 0,-0.6 0.45,-0.6 1.2,-0.6 2.39,0 2.49,-0.34 2.49,-0.84 l -0.14,-1 -3,-11.81 c -0.89,1.84 -2.35,3.18 -4.58,3.18 l 0.05,-1.09 c 3.23,0 3.93,-4.08 3.93,-4.37 0,-0.32 -0.09,-0.61 -0.14,-0.86 l -2.5,-9.77 c -0.25,-0.89 -0.25,-0.98 -1,-1.84 -2.18,-2.74 -4.23,-3.53 -5.62,-3.53 -2.49,0 -3.19,2.73 -3.19,4.68 0,2.49 1.59,8.61 2.74,10.91 1.54,2.94 3.79,4.78 5.78,4.78 l -0.05,1.09 c -5.83,0 -12,-7.31 -12,-14.59 0,-4.69 2.73,-7.97 6.62,-7.97 0.99,0 3.49,0.21 6.47,3.74 0.41,-2.1 2.14,-3.74 4.53,-3.74 1.75,0 2.9,1.14 3.69,2.74 0.85,1.79 1.5,4.84 1.5,4.93 0,0.5 -0.45,0.5 -0.59,0.5 -0.5,0 -0.55,-0.2 -0.7,-0.9 -0.85,-3.24 -1.75,-6.17 -3.79,-6.17 -1.34,0 -1.5,1.29 -1.5,2.29 0,1.19 0.1,1.55 0.3,2.39 z"
           id="path16734" /><path
           style="fill:#000000;stroke-width:0"
           d="m 500.02,425.03 -0.09,0.17 -0.09,0.17 -0.09,0.16 -0.09,0.16 -0.1,0.16 -0.11,0.16 -0.1,0.15 -0.11,0.14 -0.11,0.15 -0.12,0.13 -0.12,0.14 -0.13,0.13 -0.12,0.12 -0.13,0.12 -0.14,0.11 -0.14,0.11 -0.14,0.11 -0.15,0.09 -0.15,0.1 -0.16,0.08 -0.16,0.08 -0.16,0.08 -0.17,0.06 -0.17,0.07 -0.18,0.05 -0.18,0.05 -0.18,0.04 -0.19,0.03 -0.19,0.03 -0.2,0.02 -0.2,0.01 -0.21,0 0.04,-1.09 c 3.24,0 3.94,-4.08 3.94,-4.37 0,-0.32 -0.09,-0.61 -0.14,-0.86 l -2.5,-9.77 c -0.25,-0.89 -0.25,-0.98 -1,-1.84 -2.19,-2.74 -4.23,-3.53 -5.62,-3.53 -2.49,0 -3.19,2.73 -3.19,4.68 0,2.49 1.59,8.61 2.73,10.91 1.55,2.94 3.8,4.78 5.78,4.78 l -0.04,1.09 c -5.83,0 -12,-7.31 -12,-14.59 0,-4.69 2.73,-7.97 6.62,-7.97 0.99,0 3.49,0.21 6.47,3.74 0.41,-2.1 2.14,-3.74 4.53,-3.74 1.75,0 2.89,1.14 3.69,2.74 0.84,1.79 1.5,4.84 1.5,4.93 0,0.5 -0.45,0.5 -0.59,0.5 -0.5,0 -0.55,-0.2 -0.71,-0.9 -0.84,-3.24 -1.75,-6.17 -3.78,-6.17 -1.34,0 -1.5,1.29 -1.5,2.29 0,1.1 0.1,1.49 0.64,3.69 0.57,2.09 0.66,2.59 1.11,4.48 l 1.78,6.97 c 0.36,1.39 0.36,1.5 0.36,1.69 0,0.86 -0.61,1.36 -1.45,1.36 -1.19,0 -1.94,-1.11 -2.09,-2.2 z"
           id="path16736" /><path
           style="fill:#000000;stroke-width:0"
           d="m 529.59,441.67 0.01,0.03 0.01,0.03 0.01,0.03 0.01,0.03 0.01,0.02 0.01,0.03 0.01,0.03 0.01,0.02 0.02,0.05 0.02,0.05 0.01,0.04 0.01,0.05 0.02,0.04 0.01,0.04 0.01,0.03 0.01,0.04 0.01,0.03 0.01,0.03 0,0.03 0.01,0.02 0,0.03 0.01,0.02 0,0.02 0.01,0.02 0,0.02 0,0.02 0,0.01 0.01,0.02 0,0.01 0,0.01 0,0.01 0,0.01 0,0.01 0,0.01 0,0.01 0,0 c 0,0.55 -0.45,0.99 -1,0.99 -0.34,0 -0.7,-0.14 -0.84,-0.44 l -17.3,-47.48 c -0.25,-0.64 -0.25,-0.85 -0.25,-0.89 0,-0.55 0.45,-1 1,-1 0.65,0 0.8,0.34 1.09,1.18 z"
           id="path16738" /><path
           style="fill:#000000;stroke-width:0"
           d="m 558.38,440.23 -0.01,0 0,0.01 0,0 0,0.01 0,0.02 0,0.01 0,0.02 0,0.02 -0.01,0.02 0,0.02 0,0.02 -0.01,0.02 -0.01,0.02 -0.01,0.03 -0.01,0.02 -0.01,0.03 -0.02,0.02 -0.01,0.03 -0.02,0.02 -0.02,0.02 -0.02,0.03 -0.01,0.01 -0.02,0.01 -0.01,0.01 -0.01,0.01 -0.02,0.01 -0.01,0.01 -0.02,0.01 -0.02,0.01 -0.01,0.01 -0.02,0.01 -0.02,0 -0.02,0.01 -0.02,0.01 -0.02,0 -0.02,0.01 -0.02,0.01 -0.03,0 -0.02,0 -0.03,0.01 -0.02,0 -0.03,0 -0.03,0.01 -0.03,0 -0.03,0 c -0.75,0 -5.48,-0.46 -6.32,-0.55 -0.41,-0.05 -0.71,-0.3 -0.71,-0.95 0,-0.6 0.46,-0.6 1.21,-0.6 2.39,0 2.48,-0.34 2.48,-0.84 l -0.14,-1 -3,-11.81 c -0.89,1.84 -2.34,3.18 -4.58,3.18 l 0.05,-1.09 c 3.23,0 3.94,-4.08 3.94,-4.37 0,-0.32 -0.1,-0.61 -0.14,-0.86 l -2.5,-9.77 c -0.25,-0.89 -0.25,-0.98 -1,-1.84 -2.19,-2.74 -4.24,-3.53 -5.63,-3.53 -2.48,0 -3.19,2.73 -3.19,4.68 0,2.49 1.6,8.61 2.74,10.91 1.54,2.94 3.79,4.78 5.78,4.78 l -0.05,1.09 c -5.83,0 -12,-7.31 -12,-14.59 0,-4.69 2.74,-7.97 6.63,-7.97 0.98,0 3.48,0.21 6.47,3.74 0.4,-2.1 2.14,-3.74 4.53,-3.74 1.75,0 2.89,1.14 3.68,2.74 0.85,1.79 1.5,4.84 1.5,4.93 0,0.5 -0.45,0.5 -0.59,0.5 -0.5,0 -0.55,-0.2 -0.7,-0.9 -0.85,-3.24 -1.75,-6.17 -3.78,-6.17 -1.35,0 -1.5,1.29 -1.5,2.29 0,1.19 0.09,1.55 0.29,2.39 z"
           id="path16740" /><path
           style="fill:#000000;stroke-width:0"
           d="m 596.26,435 0.1,0.37 0.05,0.18 0.06,0.17 0.06,0.18 0.07,0.17 0.07,0.16 0.08,0.16 0.08,0.16 0.09,0.16 0.1,0.15 0.1,0.14 0.12,0.14 0.12,0.14 0.13,0.13 0.15,0.12 0.15,0.12 0.16,0.11 0.18,0.11 0.18,0.11 0.2,0.09 0.21,0.09 0.23,0.09 0.23,0.07 0.26,0.07 0.26,0.07 0.28,0.05 0.3,0.05 0.32,0.04 0.33,0.04 0.34,0.03 0.18,0.01 0.19,0 c 0.25,0 0.84,0.05 0.84,1 0,0.05 0,0.55 -0.64,0.55 -1.66,0 -3.39,-0.16 -5.03,-0.16 -1.71,0 -3.44,0.16 -5.09,0.16 -0.3,0 -0.9,0 -0.9,-1 0,-0.55 0.5,-0.55 0.9,-0.55 2.84,-0.04 3.38,-1.09 3.38,-2.18 0,-0.16 -0.09,-0.91 -0.13,-1.05 l -5.58,-22.17 -11.02,26 c -0.4,0.9 -0.45,0.95 -1.59,0.95 l -6.68,0 c -1,0 -1.45,0 -1.45,-1 0,-0.55 0.45,-0.55 1.39,-0.55 0.25,0 3.39,0 3.39,-0.45 l -6.67,-26.75 c -0.5,-2 -1.34,-3.59 -5.37,-3.73 -0.32,0 -0.86,-0.05 -0.86,-1 0,-0.35 0.25,-0.55 0.65,-0.55 1.6,0 3.33,0.16 4.99,0.16 1.68,0 3.48,-0.16 5.12,-0.16 0.25,0 0.89,0 0.89,1 0,0.5 -0.43,0.55 -0.98,0.55 -2.89,0.09 -3.3,1.18 -3.3,2.18 0,0.35 0.05,0.6 0.2,1.14 l 6.58,26.32 c 0.21,-0.3 0.21,-0.39 0.46,-0.89 l 12.4,-29.35 c 0.35,-0.86 0.49,-0.95 0.94,-0.95 0.55,0 0.55,0.16 0.8,1.05 z"
           id="path16742" /></g>    </g>
    <g
       id="g16796"
       transform="matrix(0.25804753,0,0,0.28217029,170.26994,363.43943)">
      <g
         word-spacing="normal"
         letter-spacing="normal"
         font-size-adjust="none"
         font-stretch="normal"
         font-weight="normal"
         font-variant="normal"
         font-style="normal"
         stroke-miterlimit="10.433"
         xml:space="preserve"
         transform="matrix(1.0629921,0,0,-1.0629921,-186.02362,789.27165)"
         id="g16798"
         style="font-style:normal;font-variant:normal;font-weight:normal;font-stretch:normal;letter-spacing:normal;word-spacing:normal;text-anchor:start;fill:none;fill-opacity:1;fill-rule:evenodd;stroke:#000000;stroke-width:3.70590687;stroke-linecap:butt;stroke-linejoin:miter;stroke-miterlimit:10.43299961;stroke-dasharray:none;stroke-dashoffset:0;stroke-opacity:1"><path
           id="path16800"
           d="m 488.25,448.9 0,0.01 0,0 0.01,0 0,0.01 0,0 0,0.01 0.01,0.01 0,0 0,0.01 0,0.01 0.01,0.01 0.01,0.02 0,0.02 0.01,0.02 0,0.02 0.01,0.02 0.01,0.02 0,0.03 0.01,0.02 0.01,0.05 0,0.02 0.01,0.02 0,0.03 0.01,0.02 0,0.02 0.01,0.02 0,0.02 0.01,0.02 0,0.02 0,0.01 0,0.01 0,0.01 0.01,0 0,0.01 0,0 0,0.01 0,0 0,0.01 0,0 0,0 0,0.01 0,0 c 0,0.19 -0.14,0.5 -0.55,0.5 -0.7,0 -3.59,-0.28 -4.46,-0.36 -0.29,-0.03 -0.77,-0.06 -0.77,-0.8 0,-0.48 0.48,-0.48 0.91,-0.48 1.67,0 1.67,-0.25 1.67,-0.53 0,-0.24 -0.07,-0.46 -0.14,-0.77 l -1.99,-7.94 c -0.73,1.14 -1.92,2.05 -3.59,2.05 l 0,-0.97 c 2.44,0 3.11,-2.64 3.11,-3.03 0,-0.14 -0.08,-0.39 -0.11,-0.48 l -1.64,-6.52 c -0.24,-0.98 -1,-1.67 -1.77,-2.34 -0.31,-0.27 -1.72,-1.39 -3.22,-1.39 -1.28,0 -2.53,0.9 -2.53,3.37 0,1.86 1,5.69 1.81,7.08 1.6,2.8 3.38,3.31 4.35,3.31 l 0,0.97 c -4.45,0 -8.99,-4.91 -8.99,-9.92 0,-3.38 2.27,-5.78 5.27,-5.78 1.87,0 3.55,1.08 4.94,2.44 0.67,-2.1 2.69,-2.44 3.59,-2.44 1.25,0 2.13,0.76 2.75,1.84 0.77,1.36 1.22,3.35 1.22,3.49 0,0.45 -0.45,0.45 -0.55,0.45 -0.5,0 -0.53,-0.14 -0.76,-1.08 -0.42,-1.67 -1.1,-3.73 -2.55,-3.73 -0.91,0 -1.16,0.76 -1.16,1.7 0,0.67 0.08,0.98 0.18,1.44 z"
           style="fill:#000000;stroke-width:0" /><path
           id="path16802"
           d="m 503.82,439.07 -0.07,0.11 -0.07,0.11 -0.08,0.1 -0.08,0.1 -0.08,0.1 -0.08,0.1 -0.09,0.09 -0.09,0.1 -0.09,0.09 -0.09,0.08 -0.1,0.09 -0.1,0.08 -0.1,0.08 -0.11,0.08 -0.1,0.07 -0.12,0.08 -0.11,0.06 -0.11,0.07 -0.12,0.06 -0.13,0.05 -0.12,0.06 -0.13,0.05 -0.13,0.04 -0.13,0.04 -0.14,0.04 -0.13,0.03 -0.14,0.03 -0.15,0.02 -0.15,0.02 -0.15,0.01 -0.15,0.01 -0.15,0 0,-0.97 c 2.43,0 3.11,-2.64 3.11,-3.03 0,-0.14 -0.08,-0.39 -0.11,-0.48 l -1.64,-6.52 c -0.24,-0.98 -1,-1.67 -1.77,-2.34 -0.31,-0.27 -1.72,-1.39 -3.22,-1.39 -1.28,0 -2.53,0.9 -2.53,3.37 0,1.86 1,5.69 1.81,7.08 1.6,2.8 3.38,3.31 4.35,3.31 l 0,0.97 c -4.46,0 -8.99,-4.91 -8.99,-9.92 0,-3.38 2.27,-5.78 5.27,-5.78 1.87,0 3.54,1.08 4.94,2.44 0.67,-2.1 2.68,-2.44 3.59,-2.44 1.25,0 2.12,0.76 2.75,1.84 0.76,1.36 1.22,3.35 1.22,3.49 0,0.45 -0.46,0.45 -0.55,0.45 -0.5,0 -0.53,-0.14 -0.76,-1.08 -0.43,-1.67 -1.1,-3.73 -2.55,-3.73 -0.91,0 -1.16,0.76 -1.16,1.7 0,0.59 0.28,1.86 0.53,2.77 0.24,0.93 0.6,2.35 0.77,3.12 l 0.69,2.66 c 0.22,0.9 0.62,2.54 0.62,2.72 0,0.76 -0.62,1.1 -1.17,1.1 -0.59,0 -1.41,-0.42 -1.61,-1.39 z"
           style="fill:#000000;stroke-width:0" /><polyline
           id="polyline16804"
           points="462,418 518.04,418 518.04,420.04 462,420.04 "
           style="fill:#000000;fill-rule:nonzero;stroke-width:0" /><path
           id="path16806"
           d="m 481.41,412.18 0,0 0,0.01 0.01,0 0,0.01 0,0 0,0.01 0.01,0 0,0.01 0,0.01 0,0 0.01,0.02 0.01,0.02 0,0.02 0.01,0.02 0,0.02 0.01,0.02 0.01,0.02 0,0.02 0.01,0.03 0.01,0.04 0,0.03 0.01,0.02 0,0.02 0.01,0.03 0,0.02 0.01,0.02 0,0.02 0.01,0.02 0,0.01 0,0.02 0,0.01 0,0 0.01,0.01 0,0.01 0,0 0,0.01 0,0 0,0.01 0,0 0,0 0,0.01 0,0 c 0,0.18 -0.14,0.5 -0.55,0.5 -0.7,0 -3.59,-0.28 -4.46,-0.36 -0.29,-0.03 -0.77,-0.07 -0.77,-0.8 0,-0.48 0.48,-0.48 0.91,-0.48 1.67,0 1.67,-0.25 1.67,-0.54 0,-0.23 -0.06,-0.45 -0.14,-0.76 l -1.99,-7.94 c -0.73,1.14 -1.92,2.05 -3.59,2.05 l 0,-0.97 c 2.44,0 3.11,-2.64 3.11,-3.03 0,-0.14 -0.08,-0.39 -0.11,-0.49 l -1.64,-6.51 c -0.24,-0.99 -1,-1.67 -1.77,-2.35 -0.31,-0.26 -1.72,-1.39 -3.22,-1.39 -1.28,0 -2.53,0.91 -2.53,3.38 0,1.86 1,5.69 1.82,7.08 1.59,2.79 3.37,3.31 4.34,3.31 l 0,0.97 c -4.45,0 -8.99,-4.91 -8.99,-9.92 0,-3.38 2.27,-5.78 5.27,-5.78 1.88,0 3.55,1.07 4.94,2.43 0.67,-2.09 2.69,-2.43 3.59,-2.43 1.25,0 2.13,0.76 2.75,1.84 0.77,1.36 1.22,3.34 1.22,3.48 0,0.46 -0.45,0.46 -0.55,0.46 -0.5,0 -0.53,-0.14 -0.76,-1.08 -0.42,-1.67 -1.1,-3.74 -2.55,-3.74 -0.91,0 -1.16,0.77 -1.16,1.71 0,0.67 0.08,0.98 0.18,1.43 z"
           style="fill:#000000;stroke-width:0" /><path
           id="path16808"
           d="m 511.34,409.04 0.07,0.25 0.07,0.24 0.04,0.11 0.05,0.12 0.05,0.11 0.05,0.12 0.06,0.11 0.06,0.1 0.06,0.11 0.07,0.1 0.08,0.1 0.08,0.09 0.09,0.09 0.1,0.09 0.1,0.09 0.11,0.08 0.12,0.07 0.13,0.08 0.13,0.06 0.15,0.07 0.15,0.06 0.17,0.05 0.17,0.05 0.18,0.05 0.2,0.03 0.2,0.04 0.22,0.03 0.11,0.01 0.12,0.01 0.12,0.01 0.12,0.01 0.13,0 0.13,0.01 c 0.17,0 0.7,0.03 0.7,0.76 0,0.2 -0.17,0.49 -0.53,0.49 -1.14,0 -2.44,-0.14 -3.63,-0.14 -0.82,0 -2.84,0.14 -3.68,0.14 -0.18,0 -0.71,0 -0.71,-0.77 0,-0.45 0.46,-0.48 0.78,-0.48 1.63,-0.04 2.22,-0.57 2.22,-1.44 0,-0.27 -0.03,-0.45 -0.14,-0.83 l -3.79,-15.19 -8.85,18.11 c -0.28,0.6 -0.34,0.6 -1.19,0.6 l -4.76,0 c -0.67,0 -1.13,0 -1.13,-0.77 0,-0.48 0.43,-0.48 1.16,-0.48 0.73,0 1.5,-0.04 2.22,-0.18 l -4.66,-18.64 c -0.31,-1.32 -0.9,-2.37 -3.62,-2.48 -0.25,0 -0.74,-0.03 -0.74,-0.74 0,-0.37 0.28,-0.51 0.52,-0.51 1.16,0 2.44,0.14 3.62,0.14 0.85,0 2.86,-0.14 3.71,-0.14 0.34,0 0.68,0.17 0.68,0.73 0,0.49 -0.42,0.52 -0.79,0.52 -2.21,0.08 -2.21,0.98 -2.21,1.47 0,0.14 0,0.31 0.15,0.87 l 4.46,17.83 10.18,-20.83 c 0.28,-0.56 0.42,-0.59 0.76,-0.59 0.56,0 0.56,0.11 0.74,0.73 z"
           style="fill:#000000;stroke-width:0" /><path
           id="path16810"
           d="m 571.59,422.5 0.14,0 0.15,0 0.14,0 0.07,0.01 0.08,0 0.07,0.01 0.07,0.01 0.07,0.01 0.07,0.01 0.07,0.01 0.06,0.02 0.07,0.02 0.06,0.02 0.06,0.02 0.06,0.03 0.06,0.03 0.05,0.04 0.05,0.03 0.05,0.05 0.04,0.04 0.04,0.05 0.02,0.03 0.02,0.03 0.01,0.02 0.02,0.03 0.01,0.03 0.02,0.04 0.01,0.03 0.01,0.04 0.01,0.03 0.01,0.04 0,0.04 0.01,0.04 0,0.04 0.01,0.04 0,0.04 0,0.05 c 0,1 -0.95,1 -1.64,1 l -29.84,0 c -0.71,0 -1.64,0 -1.64,-1 0,-0.98 0.93,-0.98 1.68,-0.98 z"
           style="fill:#000000;stroke-width:0" /><path
           id="path16812"
           d="m 571.64,412.82 0.07,0 0.06,0 0.14,0.01 0.14,0 0.07,0 0.07,0.01 0.07,0.01 0.07,0 0.06,0.01 0.07,0.02 0.07,0.01 0.06,0.02 0.07,0.02 0.06,0.02 0.06,0.02 0.06,0.03 0.05,0.03 0.05,0.04 0.05,0.04 0.05,0.04 0.04,0.05 0.02,0.02 0.02,0.03 0.02,0.02 0.02,0.03 0.01,0.03 0.02,0.03 0.01,0.03 0.02,0.03 0.01,0.04 0.01,0.03 0.01,0.04 0.01,0.04 0,0.04 0.01,0.04 0,0.04 0.01,0.04 0,0.05 0,0.04 c 0,1 -0.95,1 -1.69,1 l -29.75,0 c -0.75,0 -1.68,0 -1.68,-1 0,-1 0.93,-1 1.64,-1 z"
           style="fill:#000000;stroke-width:0" /><path
           id="path16814"
           d="m 627.78,440.82 0,0.02 0,0.02 -0.01,0.01 0,0.02 0,0.02 0,0.02 -0.01,0.02 0,0.02 -0.01,0.02 -0.01,0.02 -0.01,0.02 -0.01,0.02 -0.01,0.02 -0.01,0.02 -0.01,0.02 -0.02,0.02 -0.01,0.02 -0.02,0.02 -0.02,0.02 -0.02,0.02 -0.02,0.01 -0.02,0.02 -0.03,0.01 -0.02,0.02 -0.03,0.01 -0.02,0.01 -0.01,0 -0.02,0.01 -0.01,0 -0.02,0.01 -0.02,0 -0.01,0 -0.02,0.01 -0.02,0 -0.02,0 -0.02,0 -0.02,0 -0.02,0 -0.02,0 c -0.14,0 -0.2,-0.04 -0.75,-0.59 L 623,436.89 c -0.44,0.7 -2.74,4.43 -8.27,4.43 -11.11,0 -22.33,-11.01 -22.33,-22.56 0,-8.23 5.89,-13.65 13.52,-13.65 4.33,0 8.11,1.98 10.75,4.28 4.64,4.09 5.48,8.62 5.48,8.76 0,0.5 -0.5,0.5 -0.59,0.5 -0.3,0 -0.55,-0.09 -0.66,-0.5 -0.43,-1.44 -1.59,-4.98 -5.03,-7.87 -3.44,-2.78 -6.58,-3.63 -9.15,-3.63 -4.49,0 -9.77,2.6 -9.77,10.36 0,2.85 1.05,10.91 6.02,16.74 3.04,3.54 7.73,6.03 12.15,6.03 5.1,0 8.03,-3.83 8.03,-9.61 0,-2 -0.15,-2.05 -0.15,-2.55 0,-0.5 0.54,-0.5 0.75,-0.5 0.64,0 0.64,0.11 0.89,1 z"
           style="fill:#000000;stroke-width:0" /><path
           id="path16816"
           d="m 645.64,394.25 0,0.02 0,0.03 0,0.01 0,0.02 -0.01,0.01 0,0.02 -0.01,0.01 0,0.02 -0.01,0.02 -0.01,0.02 -0.02,0.02 -0.01,0.03 -0.02,0.02 -0.01,0.03 -0.03,0.03 -0.02,0.03 -0.03,0.03 -0.03,0.04 -0.01,0.02 -0.02,0.02 -0.01,0.02 -0.02,0.02 -0.02,0.02 -0.02,0.03 -0.02,0.02 -0.03,0.02 -0.02,0.03 -0.02,0.02 -0.03,0.03 -0.02,0.03 -0.03,0.03 -0.03,0.03 -0.02,0.03 -0.03,0.03 -0.04,0.03 -0.03,0.03 -0.03,0.04 -0.03,0.03 -0.04,0.04 -0.04,0.03 -0.03,0.04 -0.04,0.04 c -6.22,6.28 -7.82,15.69 -7.82,23.31 0,8.67 1.9,17.35 8.02,23.56 0.64,0.61 0.64,0.71 0.64,0.86 0,0.35 -0.19,0.49 -0.48,0.49 -0.5,0 -4.99,-3.38 -7.93,-9.7 -2.54,-5.49 -3.14,-11.02 -3.14,-15.21 0,-3.89 0.55,-9.9 3.29,-15.54 2.98,-6.13 7.28,-9.36 7.78,-9.36 0.29,0 0.48,0.14 0.48,0.5 z"
           style="fill:#000000;stroke-width:0" /><path
           id="path16818"
           d="m 670.49,440.98 -0.03,0.06 -0.03,0.06 -0.03,0.05 -0.03,0.05 -0.03,0.05 -0.03,0.05 -0.02,0.05 -0.03,0.04 -0.02,0.04 -0.03,0.04 -0.03,0.04 -0.03,0.03 -0.02,0.04 -0.03,0.03 -0.03,0.03 -0.04,0.03 -0.03,0.02 -0.04,0.03 -0.03,0.02 -0.04,0.02 -0.04,0.02 -0.05,0.01 -0.04,0.02 -0.05,0.01 -0.05,0.01 -0.06,0.01 -0.06,0.01 -0.06,0.01 -0.07,0 -0.07,0.01 -0.07,0 -0.04,0 -0.04,0 c -0.84,0 -0.94,-0.25 -1.28,-0.89 l -0.31,-4.09 13.4,-26.91 -26.85,0 13.45,26.91 0.31,4.09 -16.84,-33.78 c -0.25,-0.45 -0.25,-0.55 -0.25,-0.59 0,-0.41 0.29,-0.41 1.09,-0.41 l 34.58,0 c 0.79,0 1.09,0 1.09,0.41 0,0.04 0,0.14 -0.25,0.59 z"
           style="fill:#000000;stroke-width:0" /><path
           id="path16820"
           d="m 715.35,426.32 0,0.02 -0.01,0.02 -0.01,0.01 0,0.02 -0.01,0.02 -0.01,0.02 -0.01,0.03 -0.01,0.02 -0.01,0.02 -0.01,0.02 -0.01,0.03 -0.01,0.02 -0.02,0.05 -0.02,0.06 -0.02,0.05 -0.02,0.05 -0.01,0.02 -0.01,0.03 -0.01,0.02 -0.01,0.02 0,0.03 -0.01,0.02 0,0.02 -0.01,0.02 0,0.02 -0.01,0.02 0,0.01 0,0.02 c 0,0.04 0.89,0.75 1.45,1.14 l 8.72,6.73 c 4.68,3.44 6.63,3.63 8.11,3.78 0.41,0.05 0.91,0.1 0.91,1 0,0.19 -0.16,0.55 -0.55,0.55 -1.11,0 -2.34,-0.16 -3.54,-0.16 -1.8,0 -3.74,0.16 -5.54,0.16 -0.34,0 -0.93,0 -0.93,-1 0,-0.34 0.25,-0.5 0.59,-0.55 1.09,-0.09 1.55,-0.34 1.55,-1.04 0,-0.89 -1.5,-2.05 -1.8,-2.3 l -19.44,-14.94 4,15.99 c 0.44,1.79 0.55,2.29 4.17,2.29 1.25,0 1.71,0 1.71,1 0,0.44 -0.41,0.55 -0.71,0.55 -1.39,0 -4.98,-0.16 -6.37,-0.16 -1.44,0 -4.98,0.16 -6.42,0.16 -0.36,0 -1,0 -1,-0.95 0,-0.6 0.45,-0.6 1.44,-0.6 0.65,0 1.54,-0.04 2.14,-0.09 0.79,-0.11 1.11,-0.25 1.11,-0.8 0,-0.2 -0.07,-0.36 -0.21,-0.95 l -6.67,-26.75 c -0.5,-1.95 -0.61,-2.34 -4.55,-2.34 -0.84,0 -1.39,0 -1.39,-0.96 0,-0.59 0.6,-0.59 0.75,-0.59 1.39,0 4.94,0.16 6.33,0.16 1.05,0 2.14,-0.07 3.19,-0.07 1.09,0 2.19,-0.09 3.23,-0.09 0.36,0 1,0 1,1 0,0.55 -0.45,0.55 -1.39,0.55 -1.84,0 -3.23,0 -3.23,0.89 0,0.36 0.29,1.45 0.44,2.2 0.7,2.58 1.34,5.22 2,7.81 l 7.42,5.78 5.78,-13.4 c 0.59,-1.35 0.59,-1.44 0.59,-1.74 0,-1.5 -2.14,-1.54 -2.59,-1.54 -0.55,0 -1.1,0 -1.1,-1 0,-0.55 0.6,-0.55 0.71,-0.55 1.98,0 4.08,0.16 6.08,0.16 1.09,0 3.78,-0.16 4.87,-0.16 0.25,0 0.91,0 0.91,1 0,0.55 -0.57,0.55 -1,0.55 -2.05,0.04 -2.69,0.5 -3.44,2.23 z"
           style="fill:#000000;stroke-width:0" /><path
           id="path16822"
           d="m 750.34,418.65 0,0.37 -0.01,0.39 -0.01,0.39 -0.01,0.41 -0.04,0.84 -0.06,0.88 -0.08,0.92 -0.11,0.95 -0.13,0.97 -0.17,1.01 -0.19,1.02 -0.23,1.03 -0.27,1.05 -0.3,1.06 -0.35,1.07 -0.4,1.07 -0.21,0.53 -0.22,0.53 -0.24,0.53 -0.25,0.53 c -2.99,6.12 -7.27,9.36 -7.77,9.36 -0.29,0 -0.5,-0.19 -0.5,-0.49 0,-0.15 0,-0.25 0.94,-1.15 4.89,-4.92 7.74,-12.85 7.74,-23.27 0,-8.51 -1.85,-17.28 -8.04,-23.56 -0.64,-0.59 -0.64,-0.7 -0.64,-0.84 0,-0.3 0.21,-0.5 0.5,-0.5 0.5,0 4.97,3.39 7.93,9.71 2.53,5.47 3.12,11 3.12,15.19 z"
           style="fill:#000000;stroke-width:0" /><path
           id="path16824"
           d="m 770.41,427.03 -0.02,-0.07 -0.02,-0.07 -0.02,-0.07 -0.01,-0.08 -0.02,-0.07 -0.02,-0.08 -0.04,-0.16 -0.04,-0.16 -0.04,-0.16 -0.04,-0.16 -0.02,-0.08 -0.02,-0.07 -0.02,-0.08 -0.02,-0.07 -0.01,-0.07 -0.02,-0.07 -0.02,-0.07 -0.01,-0.06 -0.01,-0.06 -0.02,-0.06 -0.01,-0.05 -0.01,-0.05 -0.01,-0.05 0,-0.04 -0.01,-0.03 0,-0.03 -0.01,-0.03 0,-0.02 c 0,-0.76 0.63,-1.1 1.17,-1.1 0.64,0 1.19,0.45 1.36,0.76 0.19,0.31 0.46,1.42 0.64,2.16 0.18,0.65 0.55,2.26 0.77,3.14 0.2,0.76 0.41,1.53 0.59,2.33 0.38,1.5 0.38,1.56 1.08,2.65 1.11,1.71 2.86,3.69 5.56,3.69 1.96,0 2.07,-1.61 2.07,-2.44 0,-2.09 -1.5,-5.95 -2.07,-7.42 -0.37,-0.98 -0.51,-1.3 -0.51,-1.89 0,-1.84 1.53,-2.98 3.31,-2.98 3.49,0 5.02,4.79 5.02,5.32 0,0.46 -0.46,0.46 -0.57,0.46 -0.48,0 -0.51,-0.21 -0.65,-0.6 -0.8,-2.78 -2.3,-4.22 -3.69,-4.22 -0.73,0 -0.88,0.49 -0.88,1.22 0,0.8 0.18,1.25 0.8,2.83 0.42,1.08 1.85,4.77 1.85,6.72 0,0.56 0,2.03 -1.29,3.03 -0.59,0.45 -1.6,0.94 -3.25,0.94 -3.12,0 -5.04,-2.05 -6.15,-3.52 -0.28,2.97 -2.77,3.52 -4.53,3.52 -2.89,0 -4.85,-1.77 -5.89,-3.16 -0.25,2.39 -2.3,3.16 -3.74,3.16 -1.5,0 -2.3,-1.08 -2.75,-1.88 -0.76,-1.28 -1.25,-3.28 -1.25,-3.45 0,-0.45 0.49,-0.45 0.6,-0.45 0.48,0 0.51,0.11 0.76,1.04 0.52,2.07 1.19,3.77 2.55,3.77 0.9,0 1.14,-0.77 1.14,-1.7 0,-0.68 -0.31,-1.96 -0.56,-2.89 -0.24,-0.96 -0.58,-2.38 -0.77,-3.14 l -1.11,-4.47 c -0.14,-0.44 -0.34,-1.32 -0.34,-1.43 0,-0.76 0.62,-1.1 1.19,-1.1 0.62,0 1.17,0.45 1.35,0.76 0.18,0.31 0.46,1.42 0.63,2.16 0.17,0.65 0.55,2.26 0.76,3.14 0.21,0.76 0.43,1.53 0.6,2.33 0.37,1.43 0.45,1.7 1.45,3.14 0.99,1.39 2.63,3.2 5.24,3.2 2.01,0 2.04,-1.78 2.04,-2.44 0,-0.87 -0.09,-1.33 -0.59,-3.28 z"
           style="fill:#000000;stroke-width:0" /></g>    </g>
    <g
       transform="matrix(0.24333718,0,0,0.27480472,77.175599,591.95774)"
       id="g16908">
      <g
         style="font-style:normal;font-variant:normal;font-weight:normal;font-stretch:normal;letter-spacing:normal;word-spacing:normal;text-anchor:start;fill:none;fill-opacity:1;fill-rule:evenodd;stroke:#000000;stroke-width:3.8670845;stroke-linecap:butt;stroke-linejoin:miter;stroke-miterlimit:10.43299961;stroke-dasharray:none;stroke-dashoffset:0;stroke-opacity:1"
         id="g16910"
         transform="matrix(1.0629921,0,0,-1.0629921,-186.02362,789.27165)"
         xml:space="preserve"
         stroke-miterlimit="10.433"
         font-style="normal"
         font-variant="normal"
         font-weight="normal"
         font-stretch="normal"
         font-size-adjust="none"
         letter-spacing="normal"
         word-spacing="normal"><path
           style="fill:#000000;stroke-width:0"
           d="m 477.54,440.98 -0.04,0.06 -0.03,0.06 -0.03,0.05 -0.02,0.05 -0.03,0.05 -0.03,0.05 -0.03,0.05 -0.02,0.04 -0.03,0.04 -0.03,0.04 -0.02,0.04 -0.03,0.03 -0.03,0.04 -0.03,0.03 -0.03,0.03 -0.03,0.03 -0.03,0.02 -0.04,0.03 -0.04,0.02 -0.03,0.02 -0.05,0.02 -0.04,0.01 -0.05,0.02 -0.04,0.01 -0.06,0.01 -0.05,0.01 -0.06,0.01 -0.06,0.01 -0.07,0 -0.07,0.01 -0.07,0 -0.04,0 -0.04,0 c -0.85,0 -0.94,-0.25 -1.28,-0.89 l -0.32,-4.09 13.41,-26.91 -26.86,0 13.45,26.91 0.32,4.09 -16.85,-33.78 c -0.25,-0.45 -0.25,-0.55 -0.25,-0.59 0,-0.41 0.3,-0.41 1.1,-0.41 l 34.58,0 c 0.79,0 1.09,0 1.09,0.41 0,0.04 0,0.14 -0.25,0.59 z"
           id="path16912" /><path
           style="fill:#000000;stroke-width:0"
           d="m 522.4,426.32 -0.01,0.02 0,0.02 -0.01,0.01 -0.01,0.02 0,0.02 -0.01,0.02 -0.01,0.03 -0.01,0.02 -0.01,0.02 -0.01,0.02 -0.01,0.03 -0.01,0.02 -0.02,0.05 -0.02,0.06 -0.03,0.05 -0.02,0.05 0,0.02 -0.01,0.03 -0.01,0.02 -0.01,0.02 -0.01,0.03 0,0.02 -0.01,0.02 0,0.02 -0.01,0.02 0,0.02 0,0.01 0,0.02 c 0,0.04 0.89,0.75 1.45,1.14 l 8.72,6.73 c 4.67,3.44 6.63,3.63 8.11,3.78 0.41,0.05 0.91,0.1 0.91,1 0,0.19 -0.16,0.55 -0.55,0.55 -1.11,0 -2.34,-0.16 -3.55,-0.16 -1.79,0 -3.73,0.16 -5.53,0.16 -0.34,0 -0.94,0 -0.94,-1 0,-0.34 0.25,-0.5 0.6,-0.55 1.09,-0.09 1.54,-0.34 1.54,-1.04 0,-0.89 -1.5,-2.05 -1.79,-2.3 l -19.44,-14.94 4,15.99 c 0.44,1.79 0.55,2.29 4.17,2.29 1.25,0 1.7,0 1.7,1 0,0.44 -0.4,0.55 -0.7,0.55 -1.39,0 -4.98,-0.16 -6.37,-0.16 -1.44,0 -4.99,0.16 -6.43,0.16 -0.35,0 -1,0 -1,-0.95 0,-0.6 0.46,-0.6 1.44,-0.6 0.66,0 1.55,-0.04 2.14,-0.09 0.8,-0.11 1.11,-0.25 1.11,-0.8 0,-0.2 -0.06,-0.36 -0.2,-0.95 l -6.67,-26.75 c -0.5,-1.95 -0.61,-2.34 -4.55,-2.34 -0.84,0 -1.39,0 -1.39,-0.96 0,-0.59 0.59,-0.59 0.75,-0.59 1.39,0 4.94,0.16 6.33,0.16 1.04,0 2.14,-0.07 3.19,-0.07 1.09,0 2.18,-0.09 3.23,-0.09 0.36,0 1,0 1,1 0,0.55 -0.45,0.55 -1.39,0.55 -1.84,0 -3.24,0 -3.24,0.89 0,0.36 0.3,1.45 0.44,2.2 0.71,2.58 1.35,5.22 2,7.81 l 7.42,5.78 5.79,-13.4 c 0.59,-1.35 0.59,-1.44 0.59,-1.74 0,-1.5 -2.14,-1.54 -2.59,-1.54 -0.55,0 -1.1,0 -1.1,-1 0,-0.55 0.6,-0.55 0.7,-0.55 1.99,0 4.08,0.16 6.08,0.16 1.1,0 3.78,-0.16 4.88,-0.16 0.25,0 0.9,0 0.9,1 0,0.55 -0.56,0.55 -1,0.55 -2.04,0.04 -2.68,0.5 -3.43,2.23 z"
           id="path16914" /><path
           style="fill:#000000;stroke-width:0"
           d="m 547.98,412.53 3.54,0 c 0.66,0 1.11,0 1.11,0.76 0,0.49 -0.45,0.49 -1.03,0.49 l -3.31,0 1.28,5.15 c 0.03,0.18 0.11,0.35 0.11,0.49 0,0.64 -0.48,1.12 -1.19,1.12 -0.87,0 -1.39,-0.59 -1.64,-1.5 -0.23,-0.87 0.22,0.8 -1.33,-5.26 l -3.54,0 c -0.66,0 -1.11,0 -1.11,-0.77 0,-0.48 0.4,-0.48 1.04,-0.48 l 3.3,0 -2.05,-8.22 c -0.21,-0.88 -0.53,-2.13 -0.53,-2.58 0,-2.06 1.75,-3.31 3.74,-3.31 3.87,0 6.06,4.87 6.06,5.33 0,0.45 -0.45,0.45 -0.56,0.45 -0.41,0 -0.46,-0.08 -0.72,-0.66 -0.99,-2.2 -2.77,-4.15 -4.67,-4.15 -0.74,0 -1.22,0.45 -1.22,1.7 0,0.36 0.14,1.09 0.2,1.44 z"
           id="path16916" /><path
           style="fill:#000000;stroke-width:0"
           d="m 565.3,421.9 0.01,0.01 0,0 0,0 0,0.01 0,0 0.01,0.01 0,0.01 0,0 0,0.01 0,0.01 0.01,0.01 0,0.02 0.01,0.02 0.01,0.02 0,0.02 0.01,0.02 0,0.02 0.01,0.03 0,0.02 0.02,0.05 0.01,0.04 0,0.03 0.01,0.02 0,0.02 0.01,0.02 0,0.02 0.01,0.02 0,0.02 0,0.01 0.01,0.01 0,0.01 0,0 0,0.01 0,0 0,0.01 0,0 0,0.01 0,0 0,0 0,0.01 0.01,0 c 0,0.19 -0.15,0.5 -0.57,0.5 -0.68,0 -3.58,-0.28 -4.45,-0.36 -0.28,-0.03 -0.77,-0.06 -0.77,-0.8 0,-0.48 0.49,-0.48 0.91,-0.48 1.67,0 1.67,-0.25 1.67,-0.53 0,-0.24 -0.08,-0.46 -0.14,-0.77 l -4.92,-19.72 c -0.17,-0.62 -0.17,-0.68 -0.17,-0.76 0,-0.52 0.42,-1.11 1.19,-1.11 0.39,0 1.04,0.17 1.43,0.9 0.1,0.21 0.41,1.46 0.58,2.19 l 0.81,3.11 c 0.1,0.52 0.46,1.84 0.55,2.36 0.36,1.33 0.36,1.36 1.05,2.48 1.12,1.71 2.86,3.69 5.58,3.69 1.95,0 2.06,-1.61 2.06,-2.44 0,-2.09 -1.5,-5.95 -2.06,-7.42 -0.38,-0.98 -0.52,-1.29 -0.52,-1.89 0,-1.84 1.53,-2.98 3.3,-2.98 3.5,0 5.03,4.79 5.03,5.33 0,0.45 -0.46,0.45 -0.56,0.45 -0.49,0 -0.54,-0.2 -0.66,-0.59 -0.81,-2.79 -2.34,-4.22 -3.7,-4.22 -0.74,0 -0.88,0.48 -0.88,1.22 0,0.79 0.19,1.25 0.81,2.82 0.41,1.08 1.85,4.77 1.85,6.72 0,0.56 0,2.03 -1.3,3.03 -0.59,0.46 -1.59,0.94 -3.23,0.94 -2.55,0 -4.39,-1.39 -5.68,-2.89 z"
           id="path16918" /></g>    </g>
    <text
       id="text16985"
       y="340.44647"
       x="164.21725"
       style="font-style:normal;font-weight:normal;font-size:15px;line-height:200%;font-family:sans-serif;letter-spacing:0px;word-spacing:0px;fill:#000000;fill-opacity:1;stroke:none;stroke-width:1px;stroke-linecap:butt;stroke-linejoin:miter;stroke-opacity:1"
       xml:space="preserve"><tspan
         style="font-size:10px;text-anchor:middle;text-align:center"
         y="340.44647"
         x="121.43162"
         id="tspan16987">Regim I</tspan><tspan
         style="font-size:10px;text-anchor:middle;text-align:center"
         id="tspan16989"
         y="360.44647"
         x="121.43162">Slow propagation</tspan></text>
    <text
       id="text16985-5"
       y="339.7728"
       x="302.30118"
       style="font-style:normal;font-weight:normal;font-size:15px;line-height:200%;font-family:sans-serif;letter-spacing:0px;word-spacing:0px;fill:#000000;fill-opacity:1;stroke:none;stroke-width:1px;stroke-linecap:butt;stroke-linejoin:miter;stroke-opacity:1"
       xml:space="preserve"><tspan
         style="font-size:10px;text-anchor:middle;text-align:center"
         y="339.7728"
         x="263.76846"
         id="tspan16987-1">Regim II</tspan><tspan
         style="font-size:10px;text-anchor:middle;text-align:center"
         id="tspan16989-1"
         y="359.7728"
         x="263.76846">Paris low region</tspan></text>
    <text
       id="text16985-5-0"
       y="339.96234"
       x="452.49606"
       style="font-style:normal;font-weight:normal;font-size:15px;line-height:200%;font-family:sans-serif;letter-spacing:0px;word-spacing:0px;fill:#000000;fill-opacity:1;stroke:none;stroke-width:1px;stroke-linecap:butt;stroke-linejoin:miter;stroke-opacity:1"
       xml:space="preserve"><tspan
         style="font-size:10px;text-anchor:middle;text-align:center"
         y="339.96234"
         x="407.41061"
         id="tspan16987-1-8">Regim III</tspan><tspan
         style="font-size:10px;text-anchor:middle;text-align:center"
         id="tspan16989-1-5"
         y="359.96234"
         x="407.41061">Rapid propagation</tspan></text>
  </g>
</svg>
